<?xml version="1.0" encoding="utf-8"?>
<!-- Generator: Adobe Illustrator 25.1.0, SVG Export Plug-In . SVG Version: 6.00 Build 0)  -->
<svg version="1.1" id="Layer_1" xmlns="http://www.w3.org/2000/svg" xmlns:xlink="http://www.w3.org/1999/xlink" x="0px" y="0px"
	 viewBox="0 0 257 150" style="enable-background:new 0 0 257 150;" xml:space="preserve">
<style type="text/css">
	.st0{fill:url(#path8615_1_);}
	.st1{fill:#282828;stroke:#FFFFFF;stroke-width:2.4331;}
	.st2{fill:#FFFFFF;}
	.st3{fill:url(#path8620_2_);}
</style>
<g id="layer1" transform="translate(-473.36088,-251.72485)">
	<g id="g1894" transform="translate(428.42338,184.2561)">
		
			<linearGradient id="path8615_1_" gradientUnits="userSpaceOnUse" x1="160.2068" y1="108.6086" x2="205.1841" y2="63.4809" gradientTransform="matrix(1 0 0 -1 -44.9375 217.3586)">
			<stop  offset="0" style="stop-color:#387EB8"/>
			<stop  offset="1" style="stop-color:#366994"/>
		</linearGradient>
		<path id="path8615" class="st0" d="M151.9,100.6c-23.1,0-21.6,10-21.6,10l0,10.4h22v3.1h-30.8c0,0-14.8-1.7-14.8,21.6
			s12.9,22.5,12.9,22.5h7.7v-10.8c0,0-0.4-12.9,12.7-12.9s21.9,0,21.9,0s12.3,0.2,12.3-11.9s0-20,0-20S176,100.6,151.9,100.6z
			 M139.7,107.6c2.2,0,4,1.8,4,4c0,2.2-1.8,4-4,4c-2.2,0-4-1.8-4-4C135.8,109.4,137.6,107.6,139.7,107.6z"/>
		<path class="st1" d="M179.8,175.5c0.2-0.2,1.3-0.6,2.4-1c9.3-3,16.5-14.6,16.5-26.6c0-6.9-2.1-12.3-6.6-17.1
			c-3.1-3.3-6.4-5.3-10.7-6.8c-2.9-0.9-3.7-1-9.8-1.1c-6.2,0-6.8,0-10.1,1.1c-1.9,0.6-3.7,1.2-4,1.3c-0.4,0.1-0.5,0-0.4-0.3
			c0.1-0.3,0.7-2.9,1.4-5.9l1.2-5.4h35.4V97.7l18.2,0.2c17,0.2,18.5,0.3,21.4,1c8.1,2.1,12.9,6.5,15.3,13.9c0.9,2.7,1,3.8,1.1,8.6
			c0,4.1-0.1,6.1-0.7,8c-2.2,8.2-8.2,14-16.7,16.2c-3.1,0.8-10.5,1.3-19.4,1.3l-6.7,0v28.9h-14.1
			C185.4,175.8,179.6,175.7,179.8,175.5L179.8,175.5z M221.7,130.3c2.7-0.8,5.2-3.2,5.8-5.6c1.2-4.6-1.3-9.3-5.8-10.5
			c-0.8-0.2-4.3-0.5-7.8-0.7l-6.3-0.2v18.2l6-0.3C217.3,131,220.5,130.7,221.7,130.3L221.7,130.3z"/>
		<path id="path8620_1_" class="st2" d="M150.9,191.1c25.3,0,23.7-10.3,23.7-10.3l0-10.7h-24.2V167h33.8c0,0,16.2,1.7,16.2-22.2
			c0-23.9-14.1-23.1-14.1-23.1h-8.4v11.1c0,0,0.5,13.2-13.9,13.2s-24,0-24,0s-13.5-0.2-13.5,12.2c0,12.4,0,20.5,0,20.5
			S124.4,191.1,150.9,191.1z M164.2,183.9c-2.4,0-4.3-1.8-4.3-4.1s1.9-4.1,4.3-4.1s4.3,1.8,4.3,4.1
			C168.5,182.1,166.6,183.9,164.2,183.9z"/>
		
			<linearGradient id="path8620_2_" gradientUnits="userSpaceOnUse" x1="187.8653" y1="79.8804" x2="236.1711" y2="33.601" gradientTransform="matrix(1 0 0 -1 -44.9375 217.3586)">
			<stop  offset="0" style="stop-color:#FFE052"/>
			<stop  offset="1" style="stop-color:#FFC331"/>
		</linearGradient>
		<path id="path8620" class="st3" d="M152.5,191.1c23.1,0,21.6-10,21.6-10l0-10.4h-22v-3.1h30.8c0,0,14.8,1.7,14.8-21.6
			s-12.9-22.5-12.9-22.5h-7.7v10.8c0,0,0.4,12.9-12.7,12.9s-21.9,0-21.9,0s-12.3-0.2-12.3,11.9c0,12.1,0,20,0,20
			S128.4,191.1,152.5,191.1z M164.7,184.1c-2.2,0-4-1.8-4-4s1.8-4,4-4c2.2,0,4,1.8,4,4S166.9,184.1,164.7,184.1z"/>
	</g>
</g>
</svg>
